<?xml version="1.0" standalone="no"?>
<!DOCTYPE svg PUBLIC "-//W3C//DTD SVG 20010904//EN"
 "http://www.w3.org/TR/2001/REC-SVG-20010904/DTD/svg10.dtd">
<svg version="1.0" xmlns="http://www.w3.org/2000/svg"
 width="900.000000pt" height="507.000000pt" viewBox="0 0 900.000000 507.000000"
 preserveAspectRatio="xMidYMid meet">
<metadata>
Created by potrace 1.10, written by Peter Selinger 2001-2011
</metadata>
<g transform="translate(0.000000,507.000000) scale(0.100000,-0.100000)"
fill="#000000" stroke="none">
<path d="M4129 3027 c-3 -4 -268 -7 -590 -8 -321 0 -633 -5 -694 -10 -60 -5
-245 -11 -410 -14 -630 -10 -766 -18 -955 -56 -78 -16 -85 -18 -74 -29 5 -5
45 -2 96 6 70 11 379 14 1715 17 895 3 1700 0 1788 -4 88 -5 288 -16 445 -24
520 -27 655 -35 691 -45 20 -5 94 -14 165 -20 205 -15 363 -30 439 -40 39 -6
111 -14 160 -20 50 -5 106 -14 125 -20 19 -5 60 -10 90 -11 30 0 64 -4 75 -8
41 -16 -70 -21 -255 -11 -196 10 -1716 8 -2505 -4 -640 -10 -1256 -36 -1415
-59 -77 -12 -85 -15 -84 -35 3 -100 16 -117 83 -108 25 3 174 10 331 16 157 5
373 15 480 20 107 6 330 13 495 16 165 2 332 6 370 8 147 9 251 8 610 -3 383
-12 435 -16 435 -31 0 -21 -167 -37 -615 -60 -115 -6 -248 -16 -295 -22 -47
-6 -159 -14 -250 -18 -169 -8 -342 -27 -509 -56 l-93 -17 6 -45 c3 -25 6 -53
6 -63 0 -17 14 -22 133 -48 23 -5 157 -15 297 -21 140 -6 325 -15 410 -21 85
-5 194 -9 242 -9 48 0 98 -4 112 -10 26 -9 37 -40 14 -40 -20 0 -109 -62 -105
-74 4 -12 122 -10 237 4 41 6 163 15 270 21 350 20 331 16 345 70 9 35 -31 61
-105 70 -30 4 -91 11 -135 17 -124 17 -460 42 -560 42 -49 0 -116 4 -147 9
-32 6 -142 13 -245 16 -103 3 -199 9 -213 11 -67 14 75 38 295 49 66 3 201 12
300 20 99 8 250 19 335 25 139 9 214 17 455 50 127 17 174 45 175 102 0 19 -8
33 -27 45 -16 9 -30 19 -33 21 -25 19 80 22 565 17 907 -10 911 -10 939 8 32
22 41 53 23 80 -23 34 -134 70 -312 102 -49 9 -112 21 -140 27 -60 12 -142 23
-295 38 -63 6 -149 16 -190 22 -41 6 -122 14 -180 19 -258 19 -394 31 -516 45
-72 7 -182 14 -245 14 -63 0 -141 4 -174 10 -33 5 -136 11 -230 14 -318 10
-1150 19 -1156 13z"/>
</g>
</svg>
